<svg width="51" height="51" viewBox="0 0 51 51" fill="none" xmlns="http://www.w3.org/2000/svg">
<path d="M48.9421 21.2684L40.7602 29.5695L36.0227 24.8916L39.5519 21.3363C39.8324 21.0038 39.8097 20.5117 39.4998 20.2062C39.1903 19.9011 38.6979 19.8856 38.3694 20.1709L34.8321 23.7181L32.4672 21.379L40.6409 13.078C40.9613 12.7509 40.9575 12.2265 40.6324 11.9041C40.3053 11.5837 39.7809 11.5875 39.4585 11.9126L30.6899 20.8094C30.5333 20.9666 30.4462 21.1802 30.4478 21.4022C30.4494 21.6241 30.5396 21.8361 30.6984 21.9914L31.889 23.1564L30.7154 24.3474C29.3078 22.9588 27.1177 22.7519 25.4752 23.8524L24.8214 23.2075C24.0357 22.4352 22.9757 22.0058 21.8737 22.0134C21.353 22.0172 20.8371 22.1168 20.3523 22.3077L18.9184 20.8945L19.5053 20.3073C19.6618 20.1497 19.7489 19.9365 19.7473 19.7145C19.7457 19.4926 19.6556 19.2802 19.4967 19.1253L11.1708 10.9436C10.8421 10.6216 10.3145 10.6274 9.99284 10.9562C9.67083 11.2849 9.67667 11.8121 10.0054 12.1341L17.7112 19.7293L17.1244 20.316L12.9918 24.4671L10.032 21.5413C9.87437 21.3847 9.66114 21.2977 9.4392 21.2993C9.21725 21.3009 9.0049 21.391 8.84995 21.5499C8.52914 21.877 8.53293 22.4014 8.85844 22.7238L11.8264 25.6495L10.6528 26.8316L9.55438 28.0635L1.84834 20.4351C1.69111 20.2785 1.47747 20.1914 1.25553 20.193C1.03359 20.1946 0.821638 20.2848 0.666282 20.4436C0.345882 20.7707 0.349674 21.2951 0.674773 21.6175L8.97588 29.7994C9.13431 29.954 9.34753 30.0394 9.56865 30.0366C9.7902 30.0362 10.0022 29.9477 10.1583 29.7909L11.2986 28.6086L12.4806 29.7741C10.8676 31.4114 10.8867 34.0458 12.5232 35.6596L14.0997 37.1884C14.2569 37.345 14.4705 37.4321 14.6925 37.4305C14.9144 37.4289 15.1264 37.3387 15.2817 37.1799C15.6021 36.8528 15.5983 36.3284 15.2732 36.0059L13.7219 34.4773C13.2482 34.012 12.9794 33.3774 12.9746 32.7136C12.9698 32.0494 13.2294 31.4109 13.6963 30.9393L14.275 30.3522L20.126 24.4155C21.1086 23.4698 22.6598 23.4585 23.656 24.3899L28.9887 29.6461C29.274 29.9746 29.2585 30.4669 28.9534 30.7769C28.6479 31.0864 28.1558 31.1091 27.8237 30.8285L23.9579 27.0187C23.6271 26.6946 23.0958 26.7001 22.7718 27.0313C22.4478 27.3625 22.4532 27.8934 22.7844 28.2174L26.6498 32.0277C27.3688 32.7416 28.4476 32.9509 29.3809 32.5571C30.3147 32.1634 30.9178 31.2448 30.908 30.2318C30.9024 29.5697 30.6344 28.9367 30.1624 28.4722L26.708 25.0671C27.6609 24.6268 28.7859 24.8098 29.55 25.5294L36.6691 32.5463C37.1379 33.012 37.4031 33.6451 37.4062 34.306C37.4126 34.9669 37.1567 35.6034 36.6946 36.0758L34.3557 38.4488L31.959 40.8723L30.2645 42.5996L25.587 47.3452C25.2646 47.6703 24.7402 47.6741 24.4131 47.3537C24.088 47.0317 24.0842 46.5073 24.4046 46.1802L29.7025 40.8301C29.9385 40.6251 30.0398 40.3049 29.9644 40.0013C29.8891 39.6978 29.65 39.4621 29.3454 39.3912C29.0404 39.3202 28.7221 39.4258 28.5201 39.665L23.2554 44.9979C22.9274 45.2832 22.435 45.2676 22.1251 44.9625C21.8155 44.6571 21.7929 44.1649 22.0734 43.8324L27.3296 38.4997C27.4862 38.3424 27.5732 38.1288 27.5716 37.9068C27.57 37.6849 27.4799 37.4729 27.321 37.3176C26.9939 36.9972 26.4695 37.001 26.1471 37.3261L20.8824 42.6674C20.5604 42.9925 20.036 42.9963 19.7089 42.6759C19.5501 42.5206 19.4599 42.3086 19.4583 42.0867C19.4567 41.8647 19.5438 41.6511 19.7004 41.4939L24.9565 36.1607C25.1131 36.0035 25.2002 35.7898 25.1986 35.5679C25.197 35.3459 25.1068 35.134 24.948 34.9786C24.6209 34.6582 24.0965 34.662 23.7741 34.9871L18.5098 40.3285C18.1858 40.6548 17.6581 40.657 17.3318 40.333C17.0051 40.0089 17.0033 39.4813 17.3273 39.1549L23.6828 32.715C24.0069 32.3862 24.0031 31.857 23.6743 31.533C23.3455 31.2089 22.8163 31.2127 22.4922 31.5415L16.1036 38.0065C15.1367 38.9887 15.1481 40.5683 16.1291 41.5364C16.5623 41.9723 17.1435 42.2299 17.7575 42.2571C17.8411 43.524 18.8621 44.5268 20.1305 44.5875C20.21 45.8581 21.2323 46.8654 22.5035 46.9265C22.532 47.5523 22.7948 48.1451 23.2399 48.5862C23.9957 49.3295 25.1385 49.5152 26.0904 49.0485L26.7779 49.7346C27.4842 50.4311 28.5361 50.6439 29.4579 50.2762C30.3792 49.9086 30.9956 49.0305 31.0283 48.0388C31.6553 48.0152 32.2498 47.7515 32.688 47.3024C33.1174 46.8652 33.3709 46.2857 33.4006 45.6737C34.6712 45.5946 35.6784 44.5722 35.7396 43.3006C36.7307 43.254 37.5997 42.6246 37.954 41.698C38.3087 40.7711 38.0808 39.7227 37.3737 39.0266L36.7785 38.448L37.952 37.2574C38.7243 36.4717 39.1537 35.4117 39.1461 34.3097C39.1206 33.4859 38.851 32.6882 38.3718 32.0177L39.62 30.7518L40.2153 31.3385C40.5424 31.6589 41.0667 31.6551 41.3892 31.33L50.1326 22.4334C50.453 22.1067 50.4492 21.5819 50.1241 21.2599C49.9669 21.1033 49.7533 21.0162 49.5313 21.0178C49.3094 21.0194 49.0974 21.1096 48.9421 21.2684ZM12.4888 27.4179L17.7535 22.0851L18.9355 23.2501L13.6794 28.5914L12.4888 27.4179ZM29.125 48.4936C28.8026 48.8187 28.2782 48.8225 27.9515 48.5021L27.3562 47.9154L28.5298 46.7329L29.1165 47.3116C29.2753 47.4665 29.3655 47.6789 29.3671 47.9008C29.3687 48.1228 29.2816 48.3364 29.125 48.4936ZM31.464 46.1206C31.1415 46.4457 30.6172 46.4495 30.2901 46.1291L29.7366 45.542L30.3234 44.9467L30.9017 44.3596L31.4973 44.9382C31.6558 45.0936 31.7459 45.3056 31.7475 45.5275C31.7491 45.7494 31.662 45.9631 31.5059 46.1203L31.464 46.1206ZM33.8029 43.7476C33.4805 44.0727 32.9561 44.0765 32.629 43.7561L32.0337 43.1693L33.1991 41.9873L33.7945 42.5741C34.1196 42.8965 34.1233 43.4209 33.8029 43.7476ZM36.1419 41.375C35.9865 41.5334 35.7746 41.6236 35.5526 41.6252C35.3307 41.6268 35.1171 41.5397 34.9598 41.3835L34.3727 40.7963L35.5214 39.6144L36.1167 40.2011C36.4463 40.5187 36.4578 41.0434 36.1419 41.375ZM37.2388 30.769L31.906 25.5124L33.0714 24.3304L38.4127 29.5865L37.2388 30.769Z" fill="#FFBB01"/>
<path d="M16.1872 13.8626L34.5018 13.7302C34.9615 13.7269 35.3316 13.3514 35.3283 12.8917L35.244 1.23692C35.2406 0.777186 34.8652 0.407135 34.4055 0.41046L16.0908 0.542929C15.6311 0.546254 15.2611 0.921697 15.2644 1.38143L15.3487 13.0362C15.352 13.4959 15.7275 13.866 16.1872 13.8626ZM16.9956 10.5267C17.9151 10.52 18.6659 11.2601 18.6726 12.1796L17.0076 12.1917L16.9956 10.5267ZM33.6573 12.0712L31.9923 12.0833C31.9857 11.1638 32.7258 10.4129 33.6452 10.4063L33.6573 12.0712ZM33.5971 3.74641C32.6776 3.75306 31.9267 3.01296 31.9201 2.09349L33.585 2.08145L33.5971 3.74641ZM33.6091 5.41137L33.6332 8.7413C31.7938 8.75461 30.314 10.2564 30.3273 12.0953L20.3376 12.1676C20.3243 10.3286 18.8225 8.84843 16.9835 8.86173L16.9595 5.5318C18.7984 5.5185 20.2786 4.01673 20.2653 2.17779L30.2551 2.10553C30.2684 3.94447 31.7698 5.42468 33.6091 5.41137ZM16.9354 2.20187L18.6003 2.18983C18.607 3.1093 17.8669 3.86019 16.9474 3.86684L16.9354 2.20187Z" fill="#FFBB01"/>
<path d="M25.3202 10.4665C27.1591 10.4532 28.6393 8.95139 28.626 7.11245C28.6127 5.27351 27.1109 3.7933 25.272 3.8066C23.4326 3.81991 21.9528 5.32168 21.9661 7.16062C21.9794 8.99956 23.4808 10.4798 25.3202 10.4665ZM25.284 5.47157C26.2035 5.46492 26.9544 6.20502 26.961 7.12449C26.9677 8.04396 26.2276 8.79485 25.3081 8.8015C24.3886 8.80815 23.6378 8.06804 23.6311 7.14857C23.6245 6.2291 24.3646 5.47822 25.284 5.47157Z" fill="#FFBB01"/>
<path d="M31.956 7.08832C31.9593 7.54806 31.5893 7.9235 31.1295 7.92683C30.6698 7.93015 30.2943 7.5601 30.291 7.10037C30.2877 6.64063 30.6577 6.26519 31.1175 6.26186C31.5772 6.25854 31.9527 6.62859 31.956 7.08832Z" fill="#FFBB01"/>
<path d="M20.3012 7.17267C20.3046 7.63241 19.9345 8.00785 19.4748 8.01118C19.0151 8.0145 18.6396 7.64445 18.6363 7.18472C18.633 6.72498 19.003 6.34954 19.4627 6.34621C19.9225 6.34289 20.2979 6.71294 20.3012 7.17267Z" fill="#FFBB01"/>
<path d="M50.1199 5.66671L46.7538 0.695903C46.5973 0.466546 46.3374 0.33062 46.0602 0.332625C45.7829 0.33463 45.5246 0.474305 45.3718 0.705899L42.078 5.72488C41.9879 5.8609 41.9399 6.02059 41.9398 6.1836L41.9639 9.51353C41.9672 9.97327 42.3427 10.3433 42.8024 10.34C43.2622 10.3367 43.6322 9.96123 43.6289 9.50149L43.6066 6.42114L46.077 2.65691L48.6015 6.38502L48.6659 15.2927C48.6693 15.7525 49.0447 16.1225 49.5044 16.1192C49.9642 16.1159 50.3342 15.7404 50.3309 15.2807L50.2647 6.12339C50.2623 5.9604 50.2119 5.80141 50.1199 5.66671Z" fill="#FFBB01"/>
<path d="M46.9769 11.9749L46.9408 6.97999C46.9375 6.52025 46.562 6.1502 46.1023 6.15352C45.6426 6.15685 45.2725 6.53229 45.2758 6.99203L45.312 11.9869C45.3153 12.4467 45.6907 12.8167 46.1505 12.8134C46.6102 12.8101 46.9803 12.4346 46.9769 11.9749Z" fill="#FFBB01"/>
<path d="M1.16023 8.14366L1.99271 8.13764L2.06497 18.1274C2.06829 18.5872 2.44373 18.9572 2.90347 18.9539C3.3632 18.9506 3.73326 18.5751 3.72993 18.1154L3.65165 7.29311C3.64833 6.83338 3.27288 6.46333 2.81315 6.46665L2.76315 6.46701L5.28483 2.88574L7.85804 6.43016L7.80804 6.43052C7.34831 6.43385 6.97826 6.80929 6.98158 7.26903L6.99362 8.93399C6.99695 9.39373 7.37239 9.76378 7.83213 9.76045C8.29186 9.75713 8.66191 9.38168 8.65859 8.92195L8.65257 8.08947L9.48505 8.08345C9.796 8.07957 10.0789 7.90313 10.2187 7.62529C10.3586 7.34785 10.3318 7.01512 10.1499 6.76318L5.94533 0.965913C5.78687 0.750797 5.53555 0.624565 5.26849 0.626497C5.00142 0.628429 4.75155 0.758286 4.59662 0.975668L0.476354 6.83315C0.297706 7.0877 0.276131 7.42078 0.419994 7.69616C0.56386 7.97195 0.849254 8.14428 1.16023 8.14366Z" fill="#FFBB01"/>
<path d="M5.35269 12.276L5.37075 14.7734C5.37407 15.2331 5.74952 15.6032 6.20925 15.5999C6.66899 15.5965 7.03904 15.2211 7.03571 14.7614L7.01765 12.2639C7.01433 11.8042 6.63888 11.4341 6.17915 11.4375C5.71941 11.4408 5.34936 11.8162 5.35269 12.276Z" fill="#FFBB01"/>
</svg>
