<svg width="50" height="51" viewBox="0 0 50 51" fill="none" xmlns="http://www.w3.org/2000/svg">
<path d="M42.6607 37.369L39.7325 40.3399L37.9532 38.5781C37.6242 38.2538 37.0945 38.2576 36.7702 38.5866C36.4458 38.9157 36.4497 39.4454 36.7787 39.7697L39.1538 42.1106C39.3111 42.2674 39.5249 42.3545 39.7471 42.3529C39.9692 42.3513 40.1813 42.2611 40.3368 42.1021L43.8856 38.5352C44.1217 38.33 44.2232 38.0095 44.1477 37.7057C44.0723 37.4015 43.833 37.1657 43.5282 37.0946C43.2233 37.0236 42.9043 37.1297 42.7022 37.3687L42.6607 37.369Z" fill="#FFBB01"/>
<path d="M43.8352 31.5699L43.8166 28.9869C43.8132 28.5268 43.4375 28.1564 42.9773 28.1597L40.4778 28.1778L40.4717 27.3446C40.4618 25.9642 41.5729 24.837 42.9532 24.827C43.4134 24.8236 43.7837 24.4479 43.7804 23.9878C43.7771 23.5276 43.4013 23.1573 42.9412 23.1606C40.6406 23.1772 38.7887 25.056 38.8054 27.3567L38.8114 28.1899L36.3118 28.2079C35.8517 28.2113 35.4813 28.587 35.4847 29.0472L35.5033 31.6301C31.2446 33.6195 28.9468 38.3068 29.982 42.8915C31.0177 47.4765 35.1068 50.7213 39.8074 50.6873C44.5075 50.6533 48.5497 47.3497 49.5189 42.7501C50.4877 38.151 48.1224 33.4974 43.8352 31.5699ZM40.6284 49.0075L40.6224 48.1744C40.6191 47.7142 40.2433 47.3439 39.7832 47.3472C39.3231 47.3505 38.9527 47.7263 38.956 48.1864L38.9621 49.0196C34.9862 48.6675 31.8186 45.5455 31.4091 41.5751L32.2423 41.5691C32.7024 41.5658 33.0728 41.19 33.0695 40.7299C33.0661 40.2698 32.6904 39.8994 32.2302 39.9027L31.397 39.9088C31.6886 36.7946 33.6994 34.1063 36.6045 32.9469C36.9241 32.8209 37.1335 32.5118 37.1322 32.168L37.1156 29.8686L42.1147 29.8324L42.1313 32.1318C42.1346 32.4756 42.3484 32.7816 42.6699 32.903C45.6238 33.9952 47.7095 36.6588 48.0609 39.7882L47.2277 39.7943C46.7675 39.7976 46.3972 40.1733 46.4005 40.6335C46.4038 41.0936 46.7796 41.464 47.2397 41.4606L48.0729 41.4546C47.7209 45.4305 44.5988 48.598 40.6284 49.0075Z" fill="#FFBB01"/>
<path d="M27.4361 44.1035C27.2612 44.1048 4.76502 44.2675 4.76502 44.2675C3.38464 44.2775 2.25735 43.1664 2.24737 41.786L2.05452 15.1239L45.3804 14.8106L45.4917 30.1912C45.495 30.6513 45.8708 31.0217 46.3309 31.0184C46.791 31.0151 47.1614 30.6393 47.1581 30.1792L47.0046 8.96616C46.988 6.66553 45.1092 4.8137 42.8085 4.83034L41.1422 4.8424L41.1361 4.00921C41.1328 3.54908 40.757 3.17871 40.2969 3.18204C39.8368 3.18537 39.4664 3.56113 39.4698 4.02126L39.4939 7.35402C39.5005 8.27427 38.7598 9.0258 37.8395 9.03246C36.9193 9.03911 36.1677 8.29838 36.1611 7.37813L36.137 4.04537C36.1303 3.12511 36.8711 2.37359 37.7913 2.36693C38.2514 2.3636 38.6218 1.98784 38.6185 1.52771C38.6152 1.06759 38.2394 0.697223 37.7793 0.700551C35.9388 0.713863 34.4573 2.21691 34.4706 4.05742L34.4766 4.89061L26.9779 4.94485L26.9719 4.11166C26.9686 3.65153 26.5928 3.28116 26.1327 3.28449C25.6725 3.28782 25.3022 3.66358 25.3055 4.12371L25.3296 7.45647C25.3363 8.37672 24.5955 9.12825 23.6753 9.13491C22.755 9.14156 22.0035 8.40083 21.9969 7.48058L21.9728 4.14782C21.9661 3.22756 22.7068 2.47604 23.6271 2.46938C24.0872 2.46605 24.4576 2.09029 24.4542 1.63016C24.4509 1.17004 24.0752 0.799672 23.615 0.803C21.7745 0.816313 20.2931 2.31936 20.3064 4.15987L20.3124 4.99306L12.8137 5.0473L12.8077 4.21411C12.8043 3.75398 12.4286 3.38361 11.9684 3.38694C11.5083 3.39027 11.1379 3.76603 11.1413 4.22616L11.1654 7.55892C11.172 8.47917 10.4313 9.2307 9.51105 9.23735C8.5908 9.24401 7.83927 8.50328 7.83262 7.58303L7.80851 4.25026C7.80185 3.33001 8.54259 2.57849 9.46284 2.57183C9.92297 2.5685 10.2933 2.19274 10.29 1.73261C10.2867 1.27249 9.91091 0.902122 9.45079 0.90545C7.61028 0.918762 6.12882 2.42181 6.14213 4.26232L6.14816 5.09551L4.48177 5.10756C2.18114 5.1242 0.329314 7.00302 0.345955 9.30365L0.580986 41.7981C0.597626 44.0987 2.47644 45.9505 4.77707 45.9339L23.9405 45.7953C28.3147 45.7636 28.3147 45.7636 28.3087 44.9305C28.3083 44.7091 28.2197 44.4966 28.0627 44.3407C27.8964 44.1775 27.6691 44.0913 27.4361 44.1035ZM4.49383 6.77394L6.16021 6.76189L6.16624 7.59508C6.17955 9.43558 7.6826 10.917 9.5231 10.9037C11.3636 10.8904 12.8451 9.38737 12.8318 7.54687L12.8257 6.71368L20.3244 6.65944L20.3305 7.49263C20.3438 9.33313 21.8468 10.8146 23.6873 10.8013C25.5278 10.788 27.0093 9.28492 26.996 7.44442L26.99 6.61123L34.4887 6.55699L34.4947 7.39018C34.508 9.23069 36.0111 10.7121 37.8516 10.6988C39.6921 10.6855 41.1735 9.18247 41.1602 7.34197L41.1542 6.50878L42.8206 6.49673C44.201 6.48674 45.3283 7.59784 45.3382 8.97822L45.3684 13.1442L2.04247 13.4575L2.01234 9.29159C2.00235 7.91121 3.11345 6.78393 4.49383 6.77394Z" fill="#FFBB01"/>
<path d="M15.4098 18.3603C15.4064 17.9001 15.0307 17.5298 14.5705 17.5331L7.90501 17.5813C7.44489 17.5846 7.07452 17.9604 7.07785 18.4205L7.12606 25.0861C7.12939 25.5462 7.50515 25.9165 7.96528 25.9132L14.6308 25.865C15.0909 25.8617 15.4613 25.4859 15.458 25.0258L15.4098 18.3603ZM13.7856 24.2047L8.78642 24.2408L8.75026 19.2417L13.7494 19.2055L13.7856 24.2047Z" fill="#FFBB01"/>
<path d="M14.667 30.8642C15.1271 30.8608 15.4975 30.4851 15.4941 30.0249C15.4908 29.5648 15.115 29.1944 14.6549 29.1978L7.98938 29.246C7.52925 29.2493 7.15889 29.6251 7.16222 30.0852L7.21043 36.7507C7.21375 37.2108 7.58952 37.5812 8.04964 37.5779L14.7152 37.5297C15.1753 37.5263 15.5457 37.1506 15.5423 36.6905L15.5182 33.3577C15.5149 32.8976 15.1391 32.5272 14.679 32.5305C14.2189 32.5339 13.8485 32.9096 13.8518 33.3697L13.8699 35.8693L8.87078 35.9055L8.83462 30.9063L14.667 30.8642Z" fill="#FFBB01"/>
<path d="M19.6541 29.1616C19.194 29.165 18.8236 29.5407 18.8269 30.0009L18.8752 36.6664C18.8785 37.1265 19.2543 37.4969 19.7144 37.4935L26.3799 37.4453C26.84 37.442 27.2104 37.0662 27.2071 36.6061L27.1588 29.9406C27.1555 29.4805 26.7798 29.1101 26.3196 29.1134L19.6541 29.1616ZM25.5346 35.785L20.5355 35.8211L20.4994 30.822L25.4985 30.7858L25.5346 35.785Z" fill="#FFBB01"/>
<path d="M37.9481 24.0299C38.4082 24.0265 38.7786 23.6508 38.7752 23.1906L38.7391 18.1915C38.7357 17.7314 38.36 17.361 37.8999 17.3643L31.2344 17.4126C30.7742 17.4159 30.4039 17.7916 30.4072 18.2518L30.4554 24.9173C30.4587 25.3774 30.8345 25.7478 31.2946 25.7445C31.7547 25.7411 32.1251 25.3654 32.1218 24.9052L32.0796 19.0729L37.0787 19.0367L37.1089 23.2027C37.1122 23.6628 37.4879 24.0332 37.9481 24.0299Z" fill="#FFBB01"/>
<path d="M26.8285 17.6861C26.6708 17.5294 26.4574 17.4422 26.2352 17.4438C26.0131 17.4454 25.8006 17.5357 25.6455 17.6947L22.9241 20.4638L20.163 17.7343C19.834 17.41 19.3043 17.4138 18.98 17.7429C18.6556 18.0719 18.6595 18.6016 18.9885 18.9259L21.7577 21.6473L19.0282 24.4084C18.8714 24.5658 18.7843 24.7796 18.7859 25.0017C18.7875 25.2238 18.8777 25.4364 19.0367 25.5915C19.1941 25.7482 19.4079 25.8353 19.63 25.8337C19.8522 25.8321 20.0643 25.7419 20.2198 25.5829L22.9411 22.8137L25.7022 25.5432C25.8596 25.7 26.0734 25.7871 26.2956 25.7855C26.5177 25.7839 26.7298 25.6937 26.8853 25.5347C27.042 25.3773 27.1292 25.1635 27.1276 24.9414C27.126 24.7192 27.0357 24.5067 26.8767 24.3516L24.1076 21.6303L26.8371 18.8692C26.9938 18.7118 27.081 18.498 27.0794 18.2758C27.0777 18.0537 26.9875 17.8412 26.8285 17.6861Z" fill="#FFBB01"/>
</svg>
