<svg width="51" height="52" viewBox="0 0 51 52" fill="none" xmlns="http://www.w3.org/2000/svg">
<path d="M50.282 12.777C50.1053 12.1383 49.6815 11.5958 49.1047 11.2692C48.5274 10.941 47.8433 10.856 47.2034 11.0327C46.5643 11.2098 46.0218 11.6332 45.6952 12.2101L45.2839 12.938C44.8864 12.7135 44.3817 12.851 44.153 13.2464L42.0629 16.869L41.3349 16.4577C41.1421 16.348 40.9132 16.3196 40.6996 16.3789C40.4857 16.4386 40.3044 16.5807 40.1956 16.7743C39.9727 17.1742 40.1138 17.6793 40.5121 17.9051L41.2401 18.3164L34.2469 30.6402L32.531 35.3273L31.7091 36.891C31.2275 37.7432 31.2872 38.7977 31.8621 39.5897L30.0041 41.9026L29.4697 40.5903C29.2287 40.0054 28.6778 39.6074 28.0473 39.5628C27.4164 39.5177 26.8145 39.8337 26.4934 40.3783L26.1972 40.8886L25.89 37.558C25.8192 36.7701 25.204 36.1406 24.4181 36.0511C23.6318 35.962 22.8916 36.4381 22.646 37.1901L20.6409 43.3536C20.5009 43.7895 20.7386 44.2565 21.1733 44.3998C21.2549 44.4371 21.3426 44.4592 21.4321 44.4643C21.7901 44.4629 22.1074 44.2324 22.2197 43.8922L24.2162 37.7288L24.5324 41.109C24.5978 41.8302 25.1209 42.4266 25.8275 42.585C26.5341 42.7434 27.2617 42.4273 27.6286 41.8034L27.9333 41.2927L28.4594 42.5973C28.6827 43.1469 29.1815 43.5367 29.7691 43.62C30.3568 43.7032 30.9442 43.4674 31.3119 43.0014L33.2354 40.5297C33.4507 40.5843 33.6722 40.6108 33.8943 40.6084C34.7873 40.6088 35.613 40.1326 36.0598 39.3592L36.8829 37.9618L40.0295 34.0814L47.0964 21.6069L47.8244 22.0183C48.0184 22.1275 48.1605 22.3092 48.2194 22.524C48.2787 22.7371 48.2503 22.9652 48.141 23.1576L44.8501 28.9557C44.7257 29.1462 44.6847 29.3792 44.7368 29.601C44.7888 29.8223 44.9289 30.0129 45.125 30.1283C45.3179 30.2383 45.5467 30.2668 45.7603 30.2075C45.9743 30.1477 46.1555 30.0057 46.2644 29.812L49.5553 24.0139C49.8835 23.4367 49.9684 22.7526 49.7913 22.1127C49.6142 21.4736 49.1908 20.9311 48.614 20.6045L47.886 20.1931L49.9429 16.5704C50.1674 16.1729 50.0299 15.6686 49.6348 15.4395L50.0462 14.7116C50.3833 14.1253 50.4685 13.4274 50.282 12.777ZM47.1426 13.0328C47.2515 12.8392 47.4335 12.6967 47.6483 12.6378C47.8619 12.5833 48.0883 12.6114 48.2819 12.7166C48.476 12.8254 48.618 13.0075 48.6774 13.2219C48.7318 13.4355 48.7037 13.6619 48.5985 13.8555L48.1872 14.5834L46.7313 13.7608L47.1426 13.0328ZM35.9549 36.3774L35.5365 36.1387L34.2983 35.4308L35.4584 32.2564L38.0938 33.7536L35.9549 36.3774ZM33.4728 38.803C33.1191 38.5602 33.0075 38.0891 33.2151 37.7133L33.6264 36.9858L35.082 37.8084L34.6705 38.5279C34.5553 38.7313 34.3602 38.8767 34.1324 38.9292C33.9045 38.9813 33.6653 38.9359 33.4728 38.803ZM39.0338 32.3807L36.139 30.7352L42.7209 19.1389L45.6156 20.7844L39.0338 32.3807ZM46.4384 19.337L43.5436 17.6915L45.1891 14.7968L48.0839 16.4422L46.4384 19.337Z" fill="#FFBB01"/>
<path d="M13.7114 38.5338L10.7837 41.4964L9.00447 39.7428C8.67708 39.4221 8.15228 39.4259 7.82957 39.7513C7.67286 39.9091 7.58571 40.1225 7.58731 40.3446C7.58892 40.5667 7.67915 40.7793 7.83813 40.9343L9.61732 42.688C9.932 42.9957 10.3555 43.1664 10.7957 43.1628C11.2384 43.162 11.663 42.9852 11.9753 42.6709L14.8948 39.7002C15.1756 39.3674 15.1529 38.8749 14.8431 38.5696C14.5329 38.2638 14.0401 38.2483 13.7114 38.5338Z" fill="#FFBB01"/>
<path d="M3.91313 40.8461C3.94142 44.7577 7.13512 47.9051 11.0463 47.8768C14.9575 47.8485 18.1053 44.6552 18.077 40.7436C18.0737 40.2835 17.6979 39.9131 17.2378 39.9165C16.7777 39.9198 16.4073 40.2956 16.4107 40.7557C16.4323 43.7466 14.0252 46.1888 11.0342 46.2104C8.04329 46.2321 5.6011 43.825 5.57947 40.834C5.55784 37.8431 7.96495 35.4009 10.9559 35.3792C12.1283 35.3675 13.2722 35.7396 14.213 36.4391C14.5832 36.7127 15.105 36.634 15.3782 36.2639C15.6517 35.8937 15.5735 35.3723 15.2033 35.0987C13.0457 33.5048 10.1725 33.2669 7.78215 34.4835C5.3914 35.7006 3.89373 38.1639 3.91313 40.8461Z" fill="#FFBB01"/>
<path d="M30.3364 7.74295C30.7965 7.73962 31.1669 7.36427 31.1635 6.90375C31.1602 6.44364 30.7844 6.07328 30.3243 6.07661L8.66191 6.23329C8.20179 6.23662 7.83143 6.61237 7.83476 7.07249L7.85887 10.4052C7.8622 10.8657 8.23795 11.2356 8.69806 11.2323L30.3605 11.0756C30.8206 11.0723 31.191 10.697 31.1876 10.2364C31.1843 9.77632 30.8085 9.40596 30.3484 9.40929L9.51918 9.55994L9.50713 7.89361L30.3364 7.74295Z" fill="#FFBB01"/>
<path d="M11.2097 12.8806C10.7496 12.884 10.3792 13.2597 10.3826 13.7198C10.3859 14.1803 10.7616 14.5503 11.2217 14.547L27.8852 14.4264C28.3453 14.4231 28.7156 14.0478 28.7123 13.5872C28.709 13.1271 28.3332 12.7568 27.8731 12.7601L11.2097 12.8806Z" fill="#FFBB01"/>
<path d="M32.9143 18.5561L14.5846 18.6887C14.1245 18.692 13.7541 19.0678 13.7575 19.5279C13.7608 19.9884 14.1365 20.3583 14.5967 20.355L32.9264 20.2224C33.3865 20.2191 33.7569 19.8438 33.7535 19.3832C33.7502 18.9231 33.3744 18.5528 32.9143 18.5561Z" fill="#FFBB01"/>
<path d="M24.6248 24.4486C24.6215 23.9885 24.2457 23.6181 23.7856 23.6214L7.1222 23.742C6.66209 23.7453 6.29173 24.121 6.29506 24.5812C6.29839 25.0417 6.67414 25.4116 7.13425 25.4083L23.7976 25.2878C24.2578 25.2844 24.6281 24.9091 24.6248 24.4486Z" fill="#FFBB01"/>
<path d="M32.9505 23.5552L27.1183 23.5974C26.6582 23.6007 26.2878 23.9764 26.2911 24.4366C26.2945 24.8971 26.6702 25.267 27.1303 25.2637L32.9625 25.2215C33.4226 25.2182 33.793 24.8429 33.7896 24.3823C33.7863 23.9222 33.4106 23.5519 32.9505 23.5552Z" fill="#FFBB01"/>
<path d="M15.4961 29.5139C15.9562 29.5105 16.3265 29.1352 16.3232 28.6747C16.3199 28.2146 15.9441 27.8442 15.484 27.8475L7.15232 27.9078C6.69221 27.9111 6.32185 28.2869 6.32518 28.747C6.32851 29.2075 6.70426 29.5774 7.16437 29.5741L15.4961 29.5139Z" fill="#FFBB01"/>
<path d="M18.8287 29.4898L24.6609 29.4476C25.121 29.4443 25.4913 29.0689 25.488 28.6084C25.4847 28.1483 25.1089 27.7779 24.6488 27.7813L18.8166 27.8234C18.3565 27.8268 17.9862 28.2025 17.9895 28.6626C17.9928 29.1232 18.3686 29.4931 18.8287 29.4898Z" fill="#FFBB01"/>
<path d="M38.064 39.3492C37.6039 39.3526 37.2335 39.7283 37.2368 40.1884L37.2971 48.5201C37.3004 48.9807 36.9301 49.356 36.4699 49.3593L3.14316 49.6004C2.68305 49.6037 2.3073 49.2338 2.30397 48.7732L1.97855 3.78207C1.97522 3.32196 2.34557 2.94621 2.80569 2.94288L36.1325 2.70183C36.5926 2.6985 36.9683 3.06885 36.9717 3.52897L37.0848 19.1761C37.0882 19.6362 37.4639 20.0066 37.924 20.0033C38.3842 19.9999 38.7545 19.6242 38.7512 19.1641L38.638 3.51692C38.628 2.13657 37.5008 1.0255 36.1204 1.03549L2.79364 1.27654C1.41329 1.28652 0.302223 2.41378 0.312207 3.79413L0.637627 48.7853C0.647614 50.166 1.77487 51.2767 3.15521 51.2667L36.482 51.0257C37.8623 51.0157 38.9734 49.8888 38.9634 48.5081L38.9032 40.1764C38.8998 39.7163 38.5241 39.3459 38.064 39.3492Z" fill="#FFBB01"/>
</svg>
