<svg width="51" height="52" viewBox="0 0 51 52" fill="none" xmlns="http://www.w3.org/2000/svg">
<path d="M48.8166 36.564L48.7999 34.2641L49.6332 34.2581C49.863 34.2581 50.0825 34.1629 50.2395 33.9953C50.38 33.8361 50.4586 33.6312 50.4603 33.4188L48.764 5.10033C48.6054 2.80839 46.6909 1.03488 44.3934 1.0515C42.096 1.06812 40.2073 2.86913 40.0819 5.16313L38.7953 33.5032C38.7901 33.7303 38.8722 33.9502 39.0248 34.1184C39.1911 34.2681 39.4109 34.3446 39.6346 34.3304L40.4678 34.3244L40.4844 36.6243L38.9324 39.7936C38.8153 40.03 38.8173 40.3083 38.9378 40.5434L44.0094 50.5058C44.0508 50.5975 44.1112 50.6792 44.1861 50.7462C44.284 50.8354 44.4016 50.9005 44.5292 50.9354L44.9873 50.932C45.1148 50.8953 45.2315 50.8286 45.3277 50.7379C45.4021 50.6699 45.4609 50.5873 45.5009 50.495L50.4279 40.4603C50.545 40.2234 50.5429 39.9452 50.4224 39.7105L48.8166 36.564ZM40.4972 32.6577L40.7993 25.9894L48.3479 25.9348L48.7879 32.5977L40.4972 32.6577ZM41.7487 5.19298C41.738 3.71573 42.9266 2.50933 44.4039 2.49864C45.8811 2.48796 47.0871 3.67704 47.0978 5.15429L48.2446 24.3109L40.8791 24.3642L40.9586 22.6971L45.5995 22.6636C46.06 22.6602 46.43 22.2845 46.4266 21.8243C46.4233 21.3638 46.048 20.9938 45.5874 20.9971L41.0299 21.0301L41.7487 5.19298ZM47.1335 34.2762L47.1456 35.9426L42.1463 35.9788L42.1342 34.3123L47.1335 34.2762ZM45.556 46.5867L45.5153 40.9539L46.3485 40.9479C46.8087 40.9446 47.179 40.5688 47.1757 40.1087C47.1724 39.6485 46.7966 39.2782 46.3365 39.2815L43.0036 39.3056C42.5435 39.3089 42.1731 39.6847 42.1764 40.1448C42.1797 40.605 42.5555 40.9753 43.0157 40.972L43.8489 40.966L43.8896 46.5987L40.6101 40.1562L41.8418 37.6475L47.4741 37.6067L48.742 40.0973L45.556 46.5867Z" fill="#FFBB01"/>
<path d="M28.6402 11.912C29.1003 11.9086 29.4707 11.5329 29.4673 11.0727C29.464 10.6126 29.0882 10.2422 28.6281 10.2455L6.96453 10.4022C6.50439 10.4056 6.13402 10.7813 6.13734 11.2415L6.16145 14.5743C6.16478 15.0345 6.54055 15.4048 7.00069 15.4015L28.6643 15.2448C29.1244 15.2415 29.4948 14.8657 29.4914 14.4056C29.4881 13.9454 29.1123 13.5751 28.6522 13.5784L7.82185 13.7291L7.8098 12.0626L28.6402 11.912Z" fill="#FFBB01"/>
<path d="M29.5276 19.4049C29.5243 18.9447 29.1485 18.5743 28.6884 18.5777L10.3577 18.7103C9.89752 18.7136 9.52714 19.0894 9.53047 19.5495C9.5338 20.0096 9.90957 20.38 10.3697 20.3767L28.7004 20.2441C29.1606 20.2408 29.531 19.865 29.5276 19.4049Z" fill="#FFBB01"/>
<path d="M5.39452 23.7457C5.39784 24.2058 5.77362 24.5762 6.23376 24.5729L19.5652 24.4764C20.0253 24.4731 20.3957 24.0973 20.3924 23.6372C20.3891 23.177 20.0133 22.8067 19.5531 22.81L6.2217 22.9064C5.76156 22.9097 5.39119 23.2855 5.39452 23.7457Z" fill="#FFBB01"/>
<path d="M24.5525 22.7738C24.0923 22.7771 23.7219 23.1529 23.7253 23.6131C23.7286 24.0732 24.1044 24.4436 24.5645 24.4403L27.8974 24.4161C28.3575 24.4128 28.7279 24.037 28.7246 23.5769C28.7212 23.1168 28.3455 22.7464 27.8853 22.7497L24.5525 22.7738Z" fill="#FFBB01"/>
<path d="M17.0897 27.8274C17.0863 27.3672 16.7106 26.9968 16.2504 27.0002L6.25185 27.0725C5.79171 27.0758 5.42134 27.4516 5.42467 27.9117C5.42799 28.3719 5.80377 28.7422 6.26391 28.7389L16.2625 28.6666C16.7226 28.6633 17.093 28.2875 17.0897 27.8274Z" fill="#FFBB01"/>
<path d="M16.2866 31.9995C16.2833 31.5394 15.9075 31.169 15.4473 31.1724L6.28198 31.2386C5.82184 31.242 5.45146 31.6178 5.45479 32.0779C5.45812 32.538 5.83389 32.9084 6.29403 32.9051L15.4594 32.8388C15.9195 32.8355 16.2899 32.4597 16.2866 31.9995Z" fill="#FFBB01"/>
<path d="M6.3121 35.4047C5.85196 35.408 5.48158 35.7838 5.48491 36.2439C5.48824 36.7041 5.86401 37.0744 6.32415 37.0711L12.1567 37.0289C12.6168 37.0256 12.9872 36.6498 12.9838 36.1897C12.9805 35.7295 12.6047 35.3592 12.1446 35.3625L6.3121 35.4047Z" fill="#FFBB01"/>
<path d="M32.7279 1.05L2.73213 1.26695C1.35171 1.27694 0.240578 2.40426 0.250563 3.78468L0.527787 42.1126C0.537772 43.493 1.66509 44.6041 3.04551 44.5941L17.2102 44.4917C17.6703 44.4883 18.0407 44.1126 18.0373 43.6524C18.034 43.1923 17.6582 42.8219 17.1981 42.8252L3.03346 42.9277C2.57332 42.931 2.19754 42.5606 2.19422 42.1005L1.95315 8.77191L33.6153 8.5429L33.8564 41.8715C33.8597 42.3316 33.4893 42.7074 33.0292 42.7107L30.5295 42.7288C30.0694 42.7321 29.699 43.1079 29.7024 43.5681C29.7057 44.0282 30.0815 44.3986 30.5416 44.3952L33.0412 44.3772C34.4217 44.3672 35.5328 43.2399 35.5228 41.8594L35.2456 3.53156C35.2356 2.15114 34.1083 1.04001 32.7279 1.05ZM1.9411 7.10548L1.91699 3.77263C1.91366 3.31249 2.28404 2.93671 2.74418 2.93338L32.7399 2.71643C33.2 2.7131 33.5758 3.08347 33.5792 3.54361L33.6033 6.87647L1.9411 7.10548Z" fill="#FFBB01"/>
<path d="M23.7854 31.9452C22.405 31.9552 21.2939 33.0825 21.3039 34.4629C21.3139 35.8433 22.4412 36.9545 23.8216 36.9445C25.202 36.9345 26.3131 35.8072 26.3032 34.4268C26.2932 33.0463 25.1659 31.9352 23.7854 31.9452ZM23.8095 35.2781C23.3494 35.2814 22.9736 34.911 22.9703 34.4509C22.967 33.9907 23.3374 33.615 23.7975 33.6116C24.2576 33.6083 24.6334 33.9787 24.6367 34.4388C24.6401 34.899 24.2697 35.2747 23.8095 35.2781Z" fill="#FFBB01"/>
<path d="M30.4692 34.3966C30.4613 33.4707 29.9425 32.6245 29.12 32.1983C29.3862 31.3111 29.14 30.3498 28.4807 29.6995C27.8209 29.0496 26.8562 28.8174 25.9729 29.0964C25.5333 28.2826 24.6805 27.7777 23.7553 27.7844C22.8302 27.7911 21.9848 28.3082 21.557 29.1283C20.6697 28.8621 19.7085 29.1083 19.0582 29.7677C18.4083 30.4274 18.1761 31.3921 18.4551 32.2755C17.6408 32.7151 17.1364 33.5679 17.1431 34.493C17.1498 35.4182 17.6665 36.264 18.487 36.6913C18.2208 37.5766 18.4649 38.5362 19.1214 39.1865C19.2853 39.3477 19.4715 39.4839 19.6744 39.591L19.7519 50.3061C19.756 50.6425 19.962 50.9433 20.2742 51.0688C20.5851 51.1972 20.9431 51.1254 21.181 50.8873L23.9024 48.118L26.6636 50.8476C26.8218 51.0027 27.0356 51.0879 27.2569 51.085C27.3664 51.0871 27.4744 51.0635 27.5729 51.016C27.8833 50.886 28.0849 50.5823 28.0841 50.2458L28.0067 39.5389C28.2081 39.4288 28.3922 39.29 28.5538 39.1269C29.2008 38.4667 29.431 37.504 29.152 36.6228C29.9707 36.1831 30.478 35.3258 30.4692 34.3966ZM24.4812 46.3472C24.3238 46.1905 24.11 46.1034 23.8879 46.105C23.6657 46.1066 23.4532 46.1968 23.2981 46.3558L21.4039 48.2858L21.343 39.8707L21.6341 39.7933C22.0738 40.6075 22.9265 41.112 23.8517 41.1053C24.7769 41.0986 25.6222 40.5818 26.05 39.7614L26.3423 39.8345L26.4031 48.2497L24.4812 46.3472ZM27.9756 35.2479L27.834 35.2489C27.4947 35.2498 27.1894 35.4562 27.0627 35.7712C26.9368 36.0842 27.0118 36.4421 27.2528 36.678L27.3536 36.7773C27.679 37.1001 27.6828 37.6249 27.3621 37.9523C27.2708 38.0494 27.1566 38.1218 27.03 38.163L26.9051 38.1639C26.643 38.2065 26.3763 38.1218 26.1869 37.9356L26.0861 37.8362C25.846 37.5979 25.4854 37.5281 25.1739 37.6601C24.862 37.7922 24.6612 38.1 24.6657 38.4385L24.6669 38.6049C24.6702 39.065 24.2998 39.4408 23.8397 39.4441C23.3795 39.4475 23.0038 39.0771 23.0004 38.6169L22.9994 38.4754C22.9986 38.136 22.7921 37.8308 22.4771 37.7041C22.3763 37.6649 22.2684 37.6462 22.1602 37.6482C21.9388 37.6486 21.7263 37.7372 21.5704 37.8941L21.471 37.9949C21.2844 38.1838 21.019 38.2724 20.7562 38.2332L20.6313 38.2341C20.5041 38.1952 20.3889 38.1244 20.2962 38.0282C19.9708 37.7055 19.967 37.1807 20.2877 36.8533L20.3956 36.7528C20.6331 36.5131 20.703 36.1541 20.5721 35.843C20.4409 35.5303 20.1331 35.3278 19.7938 35.3323L19.6436 35.3334C19.1835 35.3367 18.8077 34.9664 18.8044 34.5062C18.8011 34.0457 19.1715 33.6703 19.6316 33.667L19.7732 33.666C20.1125 33.6651 20.4178 33.4583 20.5445 33.1437C20.6704 32.8307 20.5954 32.4728 20.3544 32.2365L20.2536 32.1376C19.9246 31.8153 19.9191 31.2876 20.241 30.9586C20.5633 30.6295 21.091 30.6237 21.42 30.946L21.5209 31.0535C21.7602 31.291 22.1196 31.3608 22.4303 31.23C22.7434 31.0987 22.9455 30.7909 22.9414 30.4516L22.9402 30.2848C22.9368 29.8246 23.3072 29.4489 23.7674 29.4455C24.2275 29.4422 24.6033 29.8126 24.6066 30.2727L24.6076 30.4143C24.6084 30.754 24.8149 31.0589 25.1299 31.1856C25.4425 31.3115 25.8008 31.2369 26.0367 30.9956L26.136 30.8952C26.4579 30.5661 26.986 30.5603 27.315 30.8822C27.6441 31.2045 27.6495 31.7321 27.3276 32.0612L27.2201 32.162C26.9826 32.4014 26.9128 32.7607 27.0432 33.0714C27.1744 33.3846 27.4827 33.5866 27.822 33.5825L27.9636 33.5815C28.4237 33.5782 28.7995 33.9485 28.8028 34.4087C28.8061 34.8688 28.4358 35.2446 27.9756 35.2479Z" fill="#FFBB01"/>
</svg>
