<svg width="51" height="51" viewBox="0 0 51 51" fill="none" xmlns="http://www.w3.org/2000/svg">
<path d="M49.5715 24.7752L30.5135 24.9131C30.0533 24.9164 29.6829 25.2922 29.6862 25.7524C29.6896 26.2126 30.0654 26.583 30.5256 26.5797L48.7502 26.4479L48.8105 34.781L44.6439 34.8111L44.6017 28.9779C44.5984 28.5177 44.2226 28.1473 43.7624 28.1507C43.3022 28.154 42.9318 28.5298 42.9351 28.99L42.9773 34.8232L20.4779 34.9859L20.4176 26.6528L25.4175 26.6166C25.8777 26.6133 26.2481 26.2375 26.2448 25.7773C26.2414 25.3171 25.8656 24.9467 25.4054 24.95L19.5722 24.9922C19.1121 24.9955 18.7416 25.3713 18.745 25.8315L18.8173 35.8313C18.8206 36.2915 19.1964 36.6619 19.6566 36.6586L27.1564 36.6043L27.1685 38.2709L19.6687 38.3252C19.2085 38.3285 18.8381 38.7043 18.8414 39.1645L18.8836 44.9977L16.3837 45.0158L16.3776 44.1825C16.3743 43.7223 15.9985 43.3519 15.5383 43.3552L13.0384 43.3733L13.0082 39.2067C13.0049 38.7465 12.6291 38.3761 12.1689 38.3794C11.7087 38.3828 11.3383 38.7586 11.3416 39.2188L11.3778 44.2186C11.3811 44.6788 11.7569 45.0492 12.2171 45.0459L14.717 45.0278L14.7291 46.6945L6.39597 46.7547L6.38392 45.0881L8.88385 45.07C9.34405 45.0667 9.71447 44.6909 9.71114 44.2307L9.67497 39.2308C9.67164 38.7706 9.29583 38.4002 8.83563 38.4035C8.37544 38.4069 8.00502 38.7827 8.00835 39.2429L8.03849 43.4094L5.53855 43.4275C5.07836 43.4308 4.70794 43.8067 4.71127 44.2669L4.7173 45.1002L1.38405 45.1243C0.923856 45.1276 0.553437 45.5034 0.556765 45.9636C0.560094 46.4238 0.935911 46.7942 1.3961 46.7909L4.72935 46.7668L4.73538 47.6001C4.73871 48.0603 5.11452 48.4307 5.57472 48.4274L15.5745 48.3551C16.0346 48.3517 16.4051 47.9759 16.4017 47.5157L16.3957 46.6824L18.8956 46.6643L18.9137 49.1643C18.9171 49.6245 19.2929 49.9949 19.7531 49.9915L49.7523 49.7746C50.2125 49.7712 50.5829 49.3954 50.5796 48.9352L50.5072 38.9355C50.5039 38.4753 50.1281 38.1049 49.6679 38.1082L42.1681 38.1624L42.156 36.4958L49.6558 36.4416C50.116 36.4382 50.4865 36.0624 50.4831 35.6022L50.4108 25.6025C50.4075 25.1423 50.0317 24.7719 49.5715 24.7752ZM48.9069 48.114L20.5743 48.3189L20.5141 39.9858L43.0135 39.823L43.0557 45.6562C43.059 46.1164 43.4348 46.4868 43.895 46.4835C44.3552 46.4802 44.7256 46.1044 44.7223 45.6442L44.6801 39.811L48.8466 39.7808L48.9069 48.114ZM40.5015 38.1745L28.8351 38.2589L28.8231 36.5923L40.4894 36.5079L40.5015 38.1745Z" fill="#FFBB01"/>
<path d="M25.4294 28.2832C24.0488 28.2932 22.9376 29.4207 22.9476 30.8013C22.9576 32.1823 24.085 33.2931 25.4656 33.2831C26.8462 33.2731 27.9574 32.1461 27.9474 30.7651C27.9375 29.3845 26.81 28.2733 25.4294 28.2832ZM25.4535 31.6165C24.9933 31.6198 24.6175 31.2494 24.6142 30.7892C24.6109 30.329 24.9813 29.9532 25.4415 29.9499C25.9017 29.9465 26.2775 30.317 26.2808 30.7772C26.2841 31.2374 25.9137 31.6132 25.4535 31.6165Z" fill="#FFBB01"/>
<path d="M30.4657 33.247C30.9258 33.2436 31.2963 32.8678 31.2929 32.4076L31.2688 29.0744C31.2655 28.6142 30.8897 28.2438 30.4295 28.2471C29.9693 28.2504 29.5989 28.6262 29.6022 29.0864L29.6263 32.4197C29.6296 32.8799 30.0055 33.2503 30.4657 33.247Z" fill="#FFBB01"/>
<path d="M34.6261 32.3835L34.602 29.0503C34.5987 28.5901 34.2228 28.2196 33.7627 28.223C33.3025 28.2263 32.932 28.6021 32.9354 29.0623L32.9595 32.3956C32.9628 32.8558 33.3386 33.2262 33.7988 33.2228C34.259 33.2195 34.6294 32.8437 34.6261 32.3835Z" fill="#FFBB01"/>
<path d="M37.9593 32.3594L37.9352 29.0262C37.9318 28.566 37.556 28.1955 37.0958 28.1989C36.6356 28.2022 36.2652 28.578 36.2685 29.0382L36.2926 32.3715C36.296 32.8316 36.6718 33.2021 37.132 33.1987C37.5922 33.1954 37.9626 32.8196 37.9593 32.3594Z" fill="#FFBB01"/>
<path d="M41.2924 32.3353L41.2683 29.002C41.265 28.5419 40.8892 28.1714 40.429 28.1748C39.9688 28.1781 39.5984 28.5539 39.6017 29.0141L39.6258 32.3473C39.6291 32.8075 40.005 33.178 40.4651 33.1746C40.9253 33.1713 41.2958 32.7955 41.2924 32.3353Z" fill="#FFBB01"/>
<path d="M27.2045 43.2708C26.7443 43.2742 26.3739 43.65 26.3773 44.1102C26.3806 44.5704 26.0102 44.9462 25.55 44.9495C25.0898 44.9528 24.714 44.5824 24.7106 44.1222C24.7073 43.662 25.0777 43.2862 25.5379 43.2829C25.9981 43.2796 26.3685 42.9037 26.3652 42.4436C26.3619 41.9834 25.9861 41.6129 25.5259 41.6163C24.1453 41.6263 23.034 42.7537 23.044 44.1343C23.054 45.5153 24.1814 46.6261 25.562 46.6161C26.9426 46.6062 28.0539 45.4791 28.0439 44.0981C28.0405 43.6379 27.6647 43.2675 27.2045 43.2708Z" fill="#FFBB01"/>
<path d="M30.5259 41.5801C30.0657 41.5834 29.6953 41.9593 29.6986 42.4194L29.7228 45.7527C29.7261 46.2129 30.1019 46.5833 30.5621 46.58C31.0223 46.5766 31.3927 46.2008 31.3894 45.7406L31.3653 42.4074C31.3619 41.9472 30.9861 41.5768 30.5259 41.5801Z" fill="#FFBB01"/>
<path d="M33.8591 41.556C33.3989 41.5593 33.0285 41.9351 33.0318 42.3953L33.0559 45.7286C33.0592 46.1888 33.4351 46.5592 33.8953 46.5559C34.3554 46.5525 34.7259 46.1767 34.7225 45.7165L34.6984 42.3833C34.6951 41.9231 34.3193 41.5527 33.8591 41.556Z" fill="#FFBB01"/>
<path d="M37.1923 41.5319C36.7321 41.5352 36.3616 41.911 36.365 42.3712L36.3891 45.7045C36.3924 46.1647 36.7682 46.5351 37.2284 46.5318C37.6886 46.5284 38.059 46.1526 38.0557 45.6924L38.0316 42.3592C38.0283 41.899 37.6525 41.5286 37.1923 41.5319Z" fill="#FFBB01"/>
<path d="M40.5254 41.5078C40.0652 41.5111 39.6948 41.8869 39.6981 42.3471L39.7222 45.6804C39.7256 46.1406 40.1014 46.511 40.5616 46.5076C41.0218 46.5043 41.3922 46.1285 41.3889 45.6683L41.3648 42.3351C41.3614 41.8749 40.9856 41.5045 40.5254 41.5078Z" fill="#FFBB01"/>
<path d="M6.76372 30.7601C6.87434 30.8082 6.99374 30.8325 7.11419 30.8325C7.50029 30.824 7.82954 30.551 7.91023 30.1736C7.9905 29.7958 7.80137 29.4127 7.45266 29.2467C3.52255 27.4798 1.35337 23.2144 2.24127 18.9977C3.12877 14.781 6.83376 11.752 11.1427 11.7196C11.9882 11.713 12.8305 11.8246 13.6452 12.0514C14.0611 12.1684 14.4969 11.948 14.6498 11.5445C16.7076 6.08998 21.9131 2.46744 27.7427 2.4326C34.3825 2.41712 40.1531 6.98976 41.6562 13.4573C41.733 13.7909 42.0059 14.0432 42.344 14.0941C45.985 14.6488 48.6846 17.7653 48.7141 21.4481C48.7122 21.6906 48.6972 21.9328 48.6693 22.1735C48.6404 22.3975 48.7039 22.6241 48.8447 22.8005C48.986 22.9769 49.1927 23.0885 49.4178 23.1097C49.6406 23.1313 49.8627 23.0625 50.0337 22.9185C50.2052 22.7748 50.3116 22.5681 50.3291 22.345C50.3635 22.0433 50.3809 21.74 50.3807 21.436C50.3667 17.1391 47.3536 13.4352 43.1495 12.5464C41.2692 5.58192 34.9446 0.749604 27.7306 0.765975C21.4709 0.791312 15.821 4.52287 13.3406 10.2705C12.6139 10.1199 11.8728 10.0468 11.1307 10.0529C6.04295 10.095 1.67011 13.6721 0.620067 18.6505C-0.429564 23.6289 2.12607 28.6671 6.76372 30.7601Z" fill="#FFBB01"/>
<path d="M13.7849 31.3762C13.8538 31.3875 13.9246 31.387 13.9933 31.3747C14.9416 31.1261 15.8503 30.7464 16.6935 30.2467C16.8844 30.1339 17.0222 29.9498 17.0768 29.7353C17.1314 29.5205 17.0984 29.2933 16.9851 29.1028C16.7508 28.7106 16.2444 28.5804 15.8498 28.8111C15.135 29.2322 14.3663 29.5547 13.565 29.7693C13.1052 29.83 12.7819 30.2522 12.8426 30.712C12.9033 31.1718 13.3256 31.4951 13.7854 31.4344L13.7849 31.3762Z" fill="#FFBB01"/>
<path d="M10.4903 36.7249C10.9505 36.7216 11.3209 36.3457 11.3176 35.8855L11.223 22.8028L13.0508 25.498C13.2059 25.7296 13.4665 25.8685 13.7452 25.8677C13.9092 25.8686 14.0692 25.8178 14.2023 25.7228C14.581 25.4658 14.6814 24.9519 14.4276 24.5712L11.0582 19.5955C11.0582 19.5955 11.0582 19.5955 11.016 19.5539C10.8567 19.3581 10.6166 19.2451 10.3639 19.2469C10.1112 19.2487 9.87281 19.3652 9.71636 19.5633C9.71636 19.5633 9.71636 19.5633 9.67475 19.6055L6.37767 24.6295C6.17697 25.0102 6.29919 25.4809 6.65979 25.7159C7.01998 25.951 7.49998 25.873 7.76773 25.5362L9.55636 22.8149L9.65099 35.8976C9.65432 36.3578 10.0301 36.7282 10.4903 36.7249Z" fill="#FFBB01"/>
<path d="M31.6314 15.8797C31.2475 15.6314 30.7348 15.7393 30.4833 16.1216L28.6946 18.843L28.6241 9.09304C28.6208 8.63285 28.245 8.26243 27.7848 8.26576C27.3246 8.26909 26.9542 8.6449 26.9575 9.1051L27.028 18.855L25.2002 16.1598C25.0484 15.8822 24.753 15.7142 24.437 15.7263C24.1209 15.7383 23.839 15.928 23.7089 16.2162C23.5791 16.5044 23.6235 16.8414 23.8234 17.0866L27.1928 22.0623C27.3495 22.2915 27.6097 22.4276 27.8872 22.4255C28.1647 22.4235 28.4229 22.2837 28.5762 22.0523L31.8733 17.0283C32.1216 16.644 32.0137 16.1313 31.6314 15.8797Z" fill="#FFBB01"/>
</svg>
