<?xml version="1.0" standalone="no"?>
<!DOCTYPE svg PUBLIC "-//W3C//DTD SVG 20010904//EN"
 "http://www.w3.org/TR/2001/REC-SVG-20010904/DTD/svg10.dtd">
<svg version="1.0" xmlns="http://www.w3.org/2000/svg"
 width="198.000000pt" height="198.000000pt" viewBox="0 0 198.000000 198.000000"
 preserveAspectRatio="xMidYMid meet">

<g transform="translate(0.000000,198.000000) scale(0.100000,-0.100000)"
fill="#ffffff" stroke="none">
<path d="M357 1373 c-12 -21 -17 -114 -19 -420 -3 -332 0 -363 31 -344 19 12
23 762 4 768 -6 2 -13 0 -16 -4z"/>
<path d="M498 1319 c-15 -8 -18 -25 -18 -108 l0 -98 49 -7 c54 -7 81 -1 81 20
0 10 -14 14 -50 14 l-50 0 0 34 c0 33 2 35 37 38 52 4 56 28 4 28 -34 0 -41 3
-41 20 0 21 27 40 59 40 12 0 21 7 21 15 0 18 -64 21 -92 4z"/>
<path d="M1417 1303 c-14 -13 -6 -33 13 -33 13 0 20 7 20 20 0 19 -20 27 -33
13z"/>
<path d="M735 1210 c-14 -27 -27 -50 -30 -50 -3 0 -10 20 -16 45 -12 49 -39
62 -39 20 0 -56 43 -122 69 -106 16 10 71 123 64 134 -10 17 -24 4 -48 -43z"/>
<path d="M851 1225 c-36 -31 -38 -43 -11 -78 17 -22 26 -25 57 -20 32 5 35 4
30 -11 -4 -10 -7 -22 -7 -26 0 -5 -9 -14 -21 -20 -16 -9 -26 -8 -45 5 -14 9
-33 14 -41 10 -14 -5 -13 -9 5 -28 19 -20 20 -30 15 -119 -5 -87 -4 -98 11
-98 12 0 16 10 16 42 l0 42 38 -37 c34 -33 52 -39 52 -16 0 4 -12 22 -26 39
l-27 31 22 15 c11 8 21 19 21 25 0 15 -32 10 -52 -8 -17 -15 -18 -14 -18 15 0
27 6 34 34 46 46 19 53 36 57 131 l4 80 -41 3 c-33 2 -48 -2 -73 -23z m75 -20
c9 -21 -15 -47 -40 -43 -29 4 -31 32 -4 46 32 15 38 14 44 -3z"/>
<path d="M1040 1228 c-26 -28 -26 -68 1 -102 25 -31 66 -35 99 -8 33 27 17 45
-20 24 -27 -16 -30 -16 -46 0 -16 15 -14 17 24 27 69 19 66 81 -4 81 -21 0
-40 -8 -54 -22z m70 -18 c0 -5 -12 -10 -26 -10 -14 0 -23 4 -19 10 3 6 15 10
26 10 10 0 19 -4 19 -10z"/>
<path d="M1216 1188 c-5 -39 -3 -65 3 -71 16 -16 29 3 33 48 2 32 7 40 23 40
16 0 21 -8 23 -42 2 -29 8 -43 18 -43 10 0 14 13 14 50 0 56 -21 77 -76 78
-31 1 -32 0 -38 -60z"/>
<path d="M1405 1206 c-8 -42 -3 -78 11 -83 14 -5 24 29 24 80 0 48 -26 51 -35
3z"/>
<path d="M1603 1198 l-17 -42 -32 38 c-18 21 -38 35 -43 31 -18 -10 -13 -23
25 -65 l36 -40 -21 -36 c-23 -39 -22 -75 2 -56 16 14 83 148 92 185 12 46 -22
34 -42 -15z"/>
<path d="M720 1033 c-6 -15 -13 -34 -15 -40 -2 -7 -11 -13 -20 -13 -8 0 -15
-7 -15 -15 0 -8 9 -15 20 -15 17 0 20 -7 20 -39 0 -51 37 -91 55 -60 4 5 -1
19 -10 29 -24 26 -16 74 13 78 27 4 30 32 2 32 -15 0 -20 7 -20 29 0 40 -18
48 -30 14z"/>
<path d="M480 971 c0 -85 24 -124 73 -119 45 4 68 43 74 122 5 62 5 66 -16 66
-19 0 -21 -5 -21 -56 0 -64 -13 -94 -41 -94 -25 0 -39 36 -39 101 0 37 -4 49
-15 49 -12 0 -15 -14 -15 -69z"/>
<path d="M1010 1021 c0 -15 6 -21 21 -21 25 0 22 33 -4 38 -12 2 -17 -3 -17
-17z"/>
<path d="M1118 923 c-3 -32 -3 -64 0 -71 9 -26 27 -4 32 39 4 36 9 44 25 44
16 0 21 -8 23 -43 3 -34 7 -43 20 -40 14 3 16 13 14 48 -4 55 -17 69 -69 76
l-40 4 -5 -57z"/>
<path d="M1006 954 c-12 -31 -7 -104 8 -104 14 0 32 92 21 110 -9 15 -22 12
-29 -6z"/>
<path d="M1160 731 c0 -10 -9 -21 -21 -24 -29 -8 -22 -51 9 -55 20 -3 22 0 22
47 0 28 -2 51 -5 51 -3 0 -5 -8 -5 -19z m-2 -48 c-4 -22 -22 -20 -26 1 -2 10
3 16 13 16 10 0 15 -7 13 -17z"/>
<path d="M481 693 c1 -27 4 -38 6 -26 2 13 13 24 26 26 l22 4 -22 2 c-33 2
-29 29 5 34 25 4 25 4 -5 6 -33 1 -33 1 -32 -46z"/>
<path d="M790 725 c0 -8 -6 -15 -12 -15 -9 0 -10 -2 -2 -8 7 -4 13 -16 15 -26
2 -11 10 -21 17 -24 11 -3 11 0 1 16 -10 17 -10 23 0 36 10 12 10 16 2 16 -7
0 -9 5 -6 10 3 6 1 10 -4 10 -6 0 -11 -7 -11 -15z"/>
<path d="M561 678 c1 -29 2 -30 8 -9 3 13 15 28 26 32 17 6 16 8 -7 8 -25 1
-28 -2 -27 -31z"/>
<path d="M626 694 c-7 -19 10 -44 31 -44 10 0 13 9 11 27 -3 32 -32 43 -42 17z
m34 -14 c0 -21 -15 -27 -25 -10 -7 12 2 30 16 30 5 0 9 -9 9 -20z"/>
<path d="M701 678 c1 -29 2 -30 8 -9 9 32 28 38 34 11 4 -18 5 -18 3 2 -1 16
-8 24 -23 26 -20 3 -23 -1 -22 -30z"/>
<path d="M860 701 c0 -5 11 -8 25 -7 33 1 33 16 0 16 -14 0 -25 -4 -25 -9z"/>
<path d="M954 695 c-10 -25 4 -45 31 -45 14 0 25 4 25 9 0 5 -9 7 -20 4 -11
-3 -20 -1 -20 5 0 5 9 12 21 15 14 4 18 10 13 18 -6 10 -9 10 -12 1 -2 -7 -11
-12 -20 -12 -15 0 -15 2 -2 10 10 7 11 10 2 10 -7 0 -15 -7 -18 -15z"/>
<path d="M1041 678 c2 -30 2 -31 6 -5 5 34 30 36 36 2 4 -23 4 -23 3 2 -1 21
-7 29 -23 31 -20 3 -23 -1 -22 -30z"/>
</g>
</svg>
